<svg xmlns="http://www.w3.org/2000/svg" viewBox="0 0 14.17 12.28"><defs><style>.cls-1{fill:#243876;}</style></defs><title>Middel 1</title><g id="Laag_2" data-name="Laag 2"><g id="Laag_2-2" data-name="Laag 2"><g id="X7754y.tif"><path class="cls-1" d="M7.12,1.76A5.54,5.54,0,0,1,8.55.52a3.49,3.49,0,0,1,4.34.55,4.07,4.07,0,0,1,1.23,3.68,4.83,4.83,0,0,1-1,2.2A18.15,18.15,0,0,1,9.9,10.32c-.75.61-1.53,1.19-2.31,1.78a.75.75,0,0,1-1,0A30.65,30.65,0,0,1,2.48,8.65,12.53,12.53,0,0,1,.6,6.25,4.21,4.21,0,0,1,.91,1.47,3.69,3.69,0,0,1,3.9,0,3.47,3.47,0,0,1,6,.78C6.39,1.08,6.75,1.43,7.12,1.76ZM13.63,4a3.47,3.47,0,0,0-1.45-2.77A2.84,2.84,0,0,0,9.7.65,4.35,4.35,0,0,0,7.38,2.32c-.21.26-.39.28-.58,0a5.74,5.74,0,0,0-1-1,3,3,0,0,0-4.3.39,3.65,3.65,0,0,0-.35,4.38A13.17,13.17,0,0,0,3,8.35a32.56,32.56,0,0,0,3.94,3.29.29.29,0,0,0,.4,0,31.14,31.14,0,0,0,3.18-2.55,14,14,0,0,0,2.6-3A4,4,0,0,0,13.63,4Z"/></g></g></g></svg>