<svg xmlns="http://www.w3.org/2000/svg" viewBox="0 0 129.94 50.97"><defs><style>.cls-1{fill:#252957;}</style></defs><title>Middel 1</title><g id="Laag_2" data-name="Laag 2"><g id="Laag_3" data-name="Laag 3"><path class="cls-1" d="M19.65,30.86,39.51,50.62a1.48,1.48,0,0,1-1.28.33c-3.95,0-7.9,0-11.84,0a2.29,2.29,0,0,1-1.78-.73q-7.47-7.5-15-15Q5,30.69.4,26.15c-.51-.5-.55-.78,0-1.3Q12.55,12.73,24.69.56A1.72,1.72,0,0,1,26,0C35.67,0,45.3,0,54.92,0A14.52,14.52,0,0,1,65.56,4.53c4.63,4.71,9.32,9.36,14,14.06a5.68,5.68,0,0,0,4.35,1.82c8.37-.05,16.75,0,25.13,0h.94l.16-.2L90,.12h13.7A1.62,1.62,0,0,1,105,.59q12.27,12.3,24.57,24.57l.36.4c-1.63,1.6-3.25,3.17-4.85,4.77q-9.95,9.9-19.87,19.84a2.5,2.5,0,0,1-1.94.8c-9.34,0-18.68,0-28,0a15,15,0,0,1-11.1-4.58C59.48,41.62,54.71,36.94,50,32.2a5.16,5.16,0,0,0-3.93-1.63c-8.44,0-16.88,0-25.32,0h-.95Zm90.52-.07a1.62,1.62,0,0,0-1.11-.2q-13.05,0-26.1,0a16,16,0,0,1-2.75-.28,14.76,14.76,0,0,1-7.89-4.42c-4.62-4.67-9.28-9.31-13.89-14a5.17,5.17,0,0,0-3.84-1.66H30.33a1.72,1.72,0,0,0-1.36.54c-2.93,3-5.89,5.9-8.84,8.85-.18.19-.49.34-.33.77h1q12.95,0,25.9,0a13.74,13.74,0,0,1,10.06,4.17c5,5,10,9.9,15,14.86a4,4,0,0,0,2.91,1.24q12.47,0,24.94,0a1.52,1.52,0,0,0,1.17-.52c1-1.06,2.08-2.09,3.13-3.13Z"/></g></g></svg>